<?xml version="1.0" standalone="no"?>
<!DOCTYPE svg PUBLIC "-//W3C//DTD SVG 20010904//EN"
 "http://www.w3.org/TR/2001/REC-SVG-20010904/DTD/svg10.dtd">
<svg version="1.0" xmlns="http://www.w3.org/2000/svg"
 width="64.000000pt" height="64.000000pt" viewBox="0 0 64.000000 64.000000"
 preserveAspectRatio="xMidYMid meet">

<g transform="translate(0.000000,64.000000) scale(0.100000,-0.100000)"
fill="#000000" stroke="none">
<path d="M295 586 c-102 -47 -155 -139 -155 -267 0 -65 5 -90 25 -134 55 -115
172 -180 282 -155 51 11 53 12 53 46 l0 34 -58 0 c-91 0 -92 2 -92 217 0 166
1 181 20 198 15 14 31 17 75 13 l55 -5 0 32 c0 28 -4 33 -31 39 -62 12 -124 6
-174 -18z"/>
</g>
</svg>
