<?xml version="1.0" standalone="no"?>
<!DOCTYPE svg PUBLIC "-//W3C//DTD SVG 20010904//EN"
 "http://www.w3.org/TR/2001/REC-SVG-20010904/DTD/svg10.dtd">
<svg version="1.0" xmlns="http://www.w3.org/2000/svg"
 width="192.000000pt" height="49.000000pt" viewBox="0 0 192.000000 49.000000"
 preserveAspectRatio="xMidYMid meet">

<g transform="translate(0.000000,49.000000) scale(0.100000,-0.100000)"
fill="#000000" stroke="none">
<path d="M95 367 c-31 -31 -35 -41 -35 -88 1 -79 39 -119 114 -119 44 0 51 27
9 32 l-28 3 0 85 0 85 33 3 c47 5 35 26 -17 30 -36 3 -46 -1 -76 -31z"/>
<path d="M280 387 c-60 -30 -77 -142 -30 -192 81 -86 201 -22 187 101 -9 84
-84 128 -157 91z m68 -110 c2 -73 0 -87 -13 -87 -12 0 -15 16 -15 91 0 68 3
90 13 87 8 -3 13 -33 15 -91z"/>
<path d="M480 280 c0 -100 3 -120 15 -120 11 0 15 13 15 53 l0 52 37 -52 c33
-48 40 -53 75 -53 l38 0 0 120 c0 98 -3 120 -15 120 -10 0 -15 -15 -17 -57
l-3 -57 -43 57 c-35 47 -48 57 -72 57 l-30 0 0 -120z"/>
<path d="M700 280 l0 -120 50 0 50 0 0 55 c0 52 1 55 25 55 16 0 25 6 25 15 0
9 -9 15 -25 15 -21 0 -25 5 -25 30 0 25 4 30 25 30 18 0 25 5 25 20 0 18 -7
20 -75 20 l-75 0 0 -120z"/>
<path d="M880 280 l0 -120 50 0 50 0 0 120 0 120 -50 0 -50 0 0 -120z"/>
<path d="M1047 298 c-20 -57 -39 -111 -42 -120 -6 -14 -2 -18 14 -18 12 0 21
5 21 10 0 6 14 10 30 10 17 0 30 -4 30 -10 0 -6 26 -10 59 -10 l60 0 -41 120
c-38 115 -41 120 -68 120 -26 0 -29 -5 -63 -102z m29 -85 c-11 -11 -19 6 -11
24 8 17 8 17 12 0 3 -10 2 -21 -1 -24z"/>
<path d="M1250 280 c0 -73 4 -120 10 -120 6 0 10 23 10 50 0 28 3 50 8 50 4 0
22 -23 41 -50 30 -46 37 -50 72 -50 l39 0 0 120 c0 98 -3 120 -15 120 -10 0
-15 -15 -17 -57 l-3 -58 -44 58 c-35 46 -49 57 -72 57 l-29 0 0 -120z"/>
<path d="M1512 385 c-32 -23 -52 -67 -52 -116 0 -33 6 -47 34 -75 19 -19 30
-34 25 -34 -5 0 -9 -7 -9 -15 0 -20 49 -20 56 0 4 8 17 15 30 15 37 0 30 28
-8 32 l-33 3 0 85 0 85 33 3 c46 5 35 26 -14 30 -24 2 -48 -4 -62 -13z"/>
<path d="M1683 280 c-39 -110 -41 -120 -23 -120 10 0 22 5 25 10 8 13 52 13
60 0 3 -5 30 -10 59 -10 l54 0 -38 118 c-36 112 -39 117 -66 120 -29 3 -30 1
-71 -118z m46 -62 c1 -5 -6 -8 -15 -8 -11 0 -14 5 -10 16 3 9 6 21 7 27 0 12
17 -20 18 -35z"/>
</g>
</svg>
